<?xml version="1.0" encoding="UTF-8" standalone="no"?>
<svg
   width="355.00726pt"
   height="177.98285pt"
   version="1.0"
   id="svg9"
   xmlns="http://www.w3.org/2000/svg"
   xmlns:svg="http://www.w3.org/2000/svg">
  <defs
     id="defs13" />
  <g
     id="g12"
     transform="scale(14.04287)">
    <path
       style="fill:#ffffff;fill-opacity:1;stroke:none"
       d="M 0,0.00396729 V 0.60199 c 1.73,0 2.007,0 2.007,1.117 V 15.176 c 0,1.117 -0.27301,1.117 -2.007,1.117 v 0.598 h 8.496 c 3.16,0 5.211,-2.25 5.211,-4.5 0,-2.227 -2.028,-4.12904 -4.668,-4.305 C 11.406,7.61798 13.062,6.03601 13.062,4.15698 13.062,2.10602 11.039,0 7.851,0 Z M 3.60899,7.90698 v -6.328 C 3.60899,0.734985 3.656,0.609985 4.64,0.609985 h 3.145 c 2.429,0 3.511,1.984005 3.511,3.523015 0,1.88702 -1.50001,3.77398 -4.152,3.77398 z M 4.64,16.305 c -0.98,0 -1.027,-0.125 -1.027,-0.969 V 8.30896 h 4.54299 c 2.52701,0 3.75801,2.26604 3.75801,4.08604 0,1.816 -1.399,3.91 -4.07501,3.91"
       id="path14" />
    <path
       style="fill:#ffffff;fill-opacity:1;stroke:none"
       d="m 18.41,5.99701 c 0,-1.06305 0.125,-1.18805 1.918,-1.18805 V 4.211 c -0.84,0.02399 -2.129,0.07501 -2.774,0.07501 -0.644,0 -1.933,-0.047 -2.773,-0.07501 v 0.59796 c 1.711,0 1.832,0.125 1.832,1.18805 V 15.114 c 0,1.062 -0.117,1.187 -1.832,1.187 v 0.598 c 0.84,-0.024 2.129,-0.07 2.773,-0.07 0.645,0 1.93,0.046 2.774,0.07 v -0.598 c -1.793,0 -1.918,-0.121 -1.918,-1.187"
       id="path16" />
    <path
       style="fill:#ffffff;fill-opacity:1;stroke:none"
       d="m 21.75,4.20398 v 0.59698 c 1.636,0 1.757,0.14905 1.757,1.16401 V 15.133 c 0,1.016 -0.121,1.164 -1.757,1.164 v 0.598 h 7.476 c 2.746,0 4.481,-1.68 4.481,-3.406 0,-1.606 -1.586,-2.965 -3.739,-3.235 1.758,-0.36704 3.168,-1.48001 3.168,-2.91403 0,-1.55396 -1.73,-3.13599 -4.429,-3.13599 z M 25.109,10.004 V 5.86798 c 0,-0.98498 0.125,-1.05902 1,-1.05902 h 2.402 c 2.278,0 2.653,1.92206 2.653,2.51202 0,0.88599 -0.649,2.68302 -3.254,2.68302 z m 0,0.5 h 3.719 c 2.105,0 2.777,1.907 2.777,2.961 0,1.129 -0.816,2.836 -3.074,2.836 h -2.43 c -0.867,0 -0.988,-0.074 -0.988,-1.078"
       id="path18" />
  </g>
</svg>
